<svg width="54.938" height="112.81" version="1.0" xmlns="http://www.w3.org/2000/svg"><g transform="translate(-206.34 -175.69)"><path id="BBishop" d="m233.77 178.19 21.375 17.75-7.875 22.594c4.0951 3.69 6.6875 9.026 6.6875 14.969 0 6.8404-3.4411 12.891-8.6562 16.531 7.5415 0.63608 12.719 1.8602 12.719 3.2812 0 1.6756-7.1563 3.051-16.969 3.5312 1.6742 20.619 17.719 3.7075 17.719 23.188v5.9688h-49.938v-5.9688c0-19.474 16.036-2.6187 17.719-23.188-9.8286-0.47881-17.031-1.8539-17.031-3.5312 0-1.4211 5.2085-2.6452 12.75-3.2812-5.2267-3.6366-8.625-9.6826-8.625-16.531 0-5.927 2.5488-11.249 6.625-14.938l-7.875-22.625zm0.0312 13.438c-0.62325 0-1.125 0.50175-1.125 1.125v5.4375h-5.6562c-0.62325 0-1.125 0.41813-1.125 0.9375 0 0.51938 0.50175 0.9375 1.125 0.9375h5.6562v9.4375c0 0.62325 0.50175 1.125 1.125 1.125s1.125-0.50175 1.125-1.125v-9.4375h5.6562c0.62325 0 1.125-0.41812 1.125-0.9375 0-0.51937-0.50175-0.9375-1.125-0.9375h-5.6562v-5.4375c0-0.62325-0.50175-1.125-1.125-1.125z" style="fill:#404040;stroke-linecap:round;stroke-linejoin:round;stroke-width:5;stroke:#919191"/></g></svg>
