<svg width="59.968" height="133.22" version="1.0" xmlns="http://www.w3.org/2000/svg"><g transform="translate(-348.46 -43.938)"><path id="WQueen" d="m378.42 46.438-5.3438 19.844-10.656-7.2812-1.25 16.719-10.219-1.6875 10.406 24.156h0.375c-2.174 3.2171-3.4688 7.1086-3.4688 11.281 1e-5 7.1561 3.7488 13.395 9.375 16.969-8.0996 0.61496-13.719 1.894-13.719 3.375 0 1.6863 7.2657 3.0832 17.219 3.5625-1.8514 21.989-17.688 24.671-17.688 35.312v5.9688h49.938l-0.0312-5.9688c1e-5 -9.7416-15.827-12.924-17.656-35.312 9.9612-0.47855 17.25-1.8753 17.25-3.5625 0-1.481-5.6192-2.76-13.719-3.375 5.6173-3.5731 9.3438-9.8201 9.3438-16.969 0-4.1726-1.2636-8.0642-3.4375-11.281h0.375l10.406-24.156-10.219 1.6875-1.2812-16.719-10.656 7.2812z" style="fill:#bababa;stroke-linecap:round;stroke-linejoin:round;stroke-width:5;stroke:#dedede"/></g></svg>
