<svg width="54.938" height="147.56" version="1.0" xmlns="http://www.w3.org/2000/svg"><g transform="translate(-428.03 -43.938)"><path id="WKing" d="m452.53 46.438v10.875h-13.406v7.25h13.406v13.375l-18.094 9.2862 6.5 15.339c-3.4674 3.6207-5.5938 8.5317-5.5938 13.938 1e-5 7.5003 4.1046 14.032 10.188 17.5-8.696 0.81534-14.781 2.666-14.781 4.8125 0 2.3244 7.1386 4.2765 17 4.9688-3.1489 18.283-17.219 20.996-17.219 39.25v5.9688h49.938l-0.0312-5.9688c1e-5 -18.402-14.287-19.594-17.281-39.25 9.9104-0.68629 17.094-2.6369 17.094-4.9688 0-2.1491-6.0996-3.9987-14.812-4.8125 6.0957-3.4631 10.219-9.9907 10.219-17.5 0-5.1527-1.9408-9.8416-5.125-13.406l7.0312-15.87-18.094-9.2862v-13.375h13.406v-7.25h-13.406v-10.875z" style="fill:#bababa;stroke-linecap:round;stroke-linejoin:round;stroke-width:5;stroke:#dedede"/></g></svg>
